<?xml version="1.0" encoding="utf-8"?>
<!-- Generator: Adobe Illustrator 17.0.0, SVG Export Plug-In . SVG Version: 6.00 Build 0)  -->
<!DOCTYPE svg PUBLIC "-//W3C//DTD SVG 1.1//EN" "http://www.w3.org/Graphics/SVG/1.1/DTD/svg11.dtd">
<svg version="1.1" id="Capa_1" xmlns="http://www.w3.org/2000/svg" xmlns:xlink="http://www.w3.org/1999/xlink" x="0px" y="0px"
	 width="243.064px" height="23.098px" viewBox="0 0 243.064 23.098" enable-background="new 0 0 243.064 23.098"
	 xml:space="preserve">
<g>
	<path fill="#E4E3E2" d="M79.104,22.435V3.787h2.604v18.648H79.104z"/>
	<path fill="#E4E3E2" d="M97.639,22.435L87.867,7.063v15.372h-2.52V3.787h3.36l9.492,15.008V3.787h2.52v18.648H97.639z"/>
	<path fill="#E4E3E2" d="M119.222,3.787l-7.168,18.648h-2.716L102.17,3.787h2.828l5.712,15.568l5.796-15.568H119.222z"/>
	<path fill="#E4E3E2" d="M120.674,22.435V3.787h13.216v2.408h-10.584v5.264h9.212v2.268h-9.212v6.3h10.864v2.408H120.674z"/>
	<path fill="#E4E3E2" d="M148.586,22.435l-3.976-7.504h-5.348v7.504h-2.632V3.787h8.176c3.836,0,6.244,2.156,6.244,5.46
		c0,2.604-1.624,4.424-3.836,5.208l4.34,7.98H148.586z M144.722,6.195h-5.46v6.44h5.544c2.156,0,3.528-1.288,3.528-3.192
		C148.334,7.455,146.878,6.195,144.722,6.195z"/>
	<path fill="#E4E3E2" d="M166.558,6.755l-2.016,1.428c-1.176-1.568-2.996-2.408-5.124-2.408c-1.96,0-3.752,0.728-3.752,2.716
		c0,1.988,1.932,2.436,4.312,2.996c3.584,0.84,6.888,1.82,6.888,5.572c0,3.416-2.772,5.712-7.084,5.712
		c-3.528,0-6.188-1.512-7.588-3.836l2.156-1.372c1.288,2.044,3.416,2.912,5.628,2.912c2.52,0,4.228-1.176,4.228-3.192
		c0-2.212-2.128-2.632-5.012-3.276c-3.164-0.672-6.16-1.736-6.16-5.264c0-3.36,2.772-5.292,6.524-5.292
		C162.386,3.451,164.934,4.599,166.558,6.755z"/>
	<path fill="#E4E3E2" d="M169.27,22.435V3.787h2.604v18.648H169.27z"/>
	<path fill="#E4E3E2" d="M183.409,22.771c-5.572,0-9.1-4.172-9.1-9.66c0-5.488,3.528-9.66,9.1-9.66c5.572,0,9.128,4.172,9.128,9.66
		C192.537,18.599,188.98,22.771,183.409,22.771z M183.409,5.915c-3.976,0-6.356,2.968-6.356,7.196c0,4.228,2.38,7.224,6.356,7.224
		c3.948,0,6.356-2.996,6.356-7.224C189.765,8.883,187.357,5.915,183.409,5.915z"/>
	<path fill="#E4E3E2" d="M207.26,22.435l-9.772-15.372v15.372h-2.52V3.787h3.36l9.492,15.008V3.787h2.52v18.648H207.26z"/>
	<path fill="#E4E3E2" d="M213.975,22.435V3.787h13.216v2.408h-10.584v5.264h9.212v2.268h-9.212v6.3h10.864v2.408H213.975z"/>
	<path fill="#E4E3E2" d="M242.755,6.755l-2.016,1.428c-1.176-1.568-2.996-2.408-5.124-2.408c-1.96,0-3.752,0.728-3.752,2.716
		c0,1.988,1.932,2.436,4.312,2.996c3.584,0.84,6.888,1.82,6.888,5.572c0,3.416-2.772,5.712-7.084,5.712
		c-3.528,0-6.188-1.512-7.588-3.836l2.156-1.372c1.288,2.044,3.416,2.912,5.628,2.912c2.52,0,4.228-1.176,4.228-3.192
		c0-2.212-2.128-2.632-5.012-3.276c-3.164-0.672-6.16-1.736-6.16-5.264c0-3.36,2.772-5.292,6.524-5.292
		C238.583,3.451,241.131,4.599,242.755,6.755z"/>
</g>
<g>
	<g>
		<path fill="#E4E3E2" d="M38.726,15.714c0,4.879-2.956,7.29-7.377,7.29c-3.444,0-6.142-1.492-7.462-4.649l4.679-2.009
			c0.43,1.292,1.349,1.923,2.468,1.923c1.435,0,2.267-0.775,2.267-2.411V3.544h5.425V15.714z"/>
	</g>
</g>
<g>
	<g>
		<path fill="#E4E3E2" d="M58.227,17.35c-1.779,3.531-4.707,5.654-8.926,5.654c-5.712,0-9.759-3.903-9.759-9.96
			c0-5.999,4.047-9.845,9.759-9.845c3.415,0,6.688,1.378,8.811,5.167l-4.305,2.382c-1.119-2.095-2.554-2.899-4.363-2.899
			c-2.727,0-4.334,2.325-4.334,5.195c0,2.928,1.607,5.31,4.334,5.31c2.067,0,3.244-1.148,4.19-3.128L58.227,17.35z"/>
	</g>
</g>
<g>
	<g>
		<path fill="#E4E3E2" d="M64.695,8.366v2.87h8.381v4.248h-8.381v7.175h-5.425V3.544h15.212v4.822H64.695z"/>
	</g>
</g>
<linearGradient id="SVGID_1_" gradientUnits="userSpaceOnUse" x1="0" y1="17.4507" x2="13.0469" y2="17.4507">
	<stop  offset="0" style="stop-color:#65B1A7"/>
	<stop  offset="1" style="stop-color:#3A566F"/>
</linearGradient>
<polygon fill="url(#SVGID_1_)" points="0,23.098 12.982,23.098 13.047,22.985 6.591,11.804 "/>
<linearGradient id="SVGID_2_" gradientUnits="userSpaceOnUse" x1="1.5615" y1="11.1814" x2="20.9278" y2="11.1814">
	<stop  offset="0" style="stop-color:#F1CE52"/>
	<stop  offset="1" style="stop-color:#DF6618"/>
</linearGradient>
<polygon fill="url(#SVGID_2_)" points="1.561,0 14.371,0 20.928,11.182 14.47,22.363 "/>
</svg>
