<?xml version="1.0" encoding="utf-8"?>
<!-- Generator: Adobe Illustrator 17.0.0, SVG Export Plug-In . SVG Version: 6.00 Build 0)  -->
<!DOCTYPE svg PUBLIC "-//W3C//DTD SVG 1.1//EN" "http://www.w3.org/Graphics/SVG/1.1/DTD/svg11.dtd">
<svg version="1.1" id="Layer_1" xmlns="http://www.w3.org/2000/svg" xmlns:xlink="http://www.w3.org/1999/xlink" x="0px" y="0px"
	 width="369.068px" height="492.674px" viewBox="71.967 -642.549 369.068 492.674"
	 enable-background="new 71.967 -642.549 369.068 492.674" xml:space="preserve">
<g>
	<path d="M205.765-506.558c0.542,0.935,1.981,3.415,11.21,5.154c2.157,0.408,4.412,0.614,6.699,0.614c0.002,0,0.002,0,0.002,0
		c7.599,0,14.742-2.218,21.648-4.363c6.545-2.031,12.727-3.951,18.936-3.951l0.264,0.002c9.247,0.082,17.891,2.941,27.042,5.97
		c3.952,1.308,8.024,2.71,12.19,3.775c1.76,0.45,2.898-0.024,3.621-0.406c20.539-10.836,38.354-25.248,50.16-40.578
		c5.874-7.625,10.861-17.876,15.246-31.34c2.023-6.217,4.258-15.493,0.316-24.243c-5.076-11.271-18.512-12.575-28.178-12.575
		c-2.92,0-20.617,0.676-25.289,0.676c-11.815,0-25.637-0.892-38.561-7.506c-5.619-2.875-10.891-6.597-16.471-10.537
		c-8.458-5.974-17.203-12.15-27.497-15.35c-2.845-0.885-5.702-1.333-8.49-1.333c-19.494,0-31.228,21.691-35.083,28.818
		c-5.563,10.281-11.954,24.152-12.01,40.299c-0.054,14.711,5.107,28.522,9.61,38.911
		C195.464-524.527,200.525-515.591,205.765-506.558z"/>
	<path d="M223.471-361.351c0,14.425,11.542,20.774,24.416,24.783v-52.756c-5.809,1.238-10.827,3.53-14.805,6.809
		C226.793-377.333,223.471-370.015,223.471-361.351z"/>
	<path d="M281.314-297.73l-1.797-0.503v56.101c4.911-1.598,9.28-4.016,12.951-7.219c6.653-5.807,10.47-13.93,10.47-22.285
		C302.938-284.627,295.26-293.895,281.314-297.73z"/>
	<path d="M415.447-368.91c-19.341-35.351-46.662-64.076-75.798-91.633c-8.091-7.65-15.632-14.367-23.485-21.011
		c-7.088-2.542-21.557-2.571-30.146-5.419c-7.977-2.646-16.338-5.539-24.869-5.005c-7.814,0.49-15.131,3.287-22.689,5.08
		c-8.488,2.013-16.676,2.582-25.279,0.959c0,0-11.689-1.687-39.319-22.164c-11.218-8.314-23.21-15.755-37.039-18.745
		c-13.144-2.843-18.731,17.309-5.557,20.158c12.597,2.725,22.935,9.975,33.182,17.469c0.022,0.016,0.044,0.032,0.065,0.048
		c-14.398,1.893-27.813,7.633-41.751,11.451c-12.986,3.558-7.466,23.726,5.558,20.158c14.106-3.865,28.1-10.595,42.866-11.317
		c2.346-0.114,4.597,0.149,6.819,0.566c-32.938,27.116-63.351,57.013-85.055,94.276c-18.781,32.243-27.15,69.75-15.907,106.067
		c6.578,21.254,19.204,40.11,33.923,56.573c12.858,14.382,27.273,27.337,44.387,36.374c30.861,16.297,66.854,22.868,101.429,24.309
		c37.057,1.544,75.262-3.567,109.423-18.458c31.121-13.563,57.553-37.167,68.595-69.9
		C449.362-282.264,436.573-330.304,415.447-368.91z M313.933-233.208c-8.817,7.223-20.354,11.784-34.415,13.634v15.502
		c0,8.734-7.082,15.815-15.816,15.815c-8.734,0-15.814-7.081-15.814-15.815v-15.643c-18.108-2.513-29.754-8.944-36.752-14.534
		c-9.922-7.924-15.845-18.525-15.845-28.36c0-7.656,4.563-12.8,11.354-12.8c6.026,0,8.95,3.834,14.01,11.181
		c5.404,7.843,12.341,17.888,27.232,22.223v-65.068l-12.572-3.514c-29.262-8.211-39.527-32.596-39.527-48.302
		c0-18.231,7.397-32.905,21.392-42.434c8.271-5.632,18.888-9.404,30.708-11.029v-15.468c0-8.735,7.08-15.815,15.814-15.815
		c8.734,0,15.816,7.081,15.816,15.815v16.686c9.063,2.061,17.91,5.54,25.402,10.141c7.463,4.583,19.983,14.299,19.983,27.881
		c0,8.276-6.452,11.98-12.847,11.98c-4.806,0-7.267-2.82-11.942-8.687c-4.538-5.694-10.177-12.768-20.597-16.964v58.32l10.25,2.552
		c31.381,7.826,42.345,29.801,42.345,50.993C332.112-257.374,325.826-242.951,313.933-233.208z"/>
</g>
</svg>
